<?xml version="1.0" encoding="UTF-8"?>
<svg width="45px" height="45px" viewBox="0 0 45 45" version="1.1" xmlns="http://www.w3.org/2000/svg" xmlns:xlink="http://www.w3.org/1999/xlink">
    <!-- Generator: Sketch 48.1 (47250) - http://www.bohemiancoding.com/sketch -->
    <title>Error</title>
    <desc>Created with Sketch.</desc>
    <defs></defs>
    <g id="01-Portal-Copy" stroke="none" stroke-width="1" fill="none" fill-rule="evenodd" transform="translate(-937.000000, -791.000000)">
        <path d="M961.12132,813 L970.06066,804.06066 C970.646447,803.474874 970.646447,802.525126 970.06066,801.93934 C969.474874,801.353553 968.525126,801.353553 967.93934,801.93934 L959,810.87868 L950.06066,801.93934 C949.474874,801.353553 948.525126,801.353553 947.93934,801.93934 C947.353553,802.525126 947.353553,803.474874 947.93934,804.06066 L956.87868,813 L947.93934,821.93934 C947.353553,822.525126 947.353553,823.474874 947.93934,824.06066 C948.525126,824.646447 949.474874,824.646447 950.06066,824.06066 L959,815.12132 L967.93934,824.06066 C968.525126,824.646447 969.474874,824.646447 970.06066,824.06066 C970.646447,823.474874 970.646447,822.525126 970.06066,821.93934 L961.12132,813 Z M959.222222,835.444444 C946.949228,835.444444 937,825.495217 937,813.222222 C937,800.949228 946.949228,791 959.222222,791 C971.495217,791 981.444444,800.949228 981.444444,813.222222 C981.444444,825.495217 971.495217,835.444444 959.222222,835.444444 Z" id="Error" fill="#FD9A9A"></path>
    </g>
</svg>