<svg xmlns="http://www.w3.org/2000/svg" width="30" height="30" viewBox="0 0 30 30">
    <g fill="#FF6C72" fill-rule="evenodd">
        <path d="M15 2.727C8.234 2.727 2.727 8.234 2.727 15c0 6.768 5.507 12.273 12.273 12.273 6.768 0 12.273-5.505 12.273-12.273 0-6.766-5.505-12.273-12.273-12.273M15 30C6.73 30 0 23.27 0 15S6.73 0 15 0s15 6.73 15 15-6.73 15-15 15"/>
        <path d="M15.5 16c-.828 0-1.5-.597-1.5-1.333V9.333C14 8.597 14.672 8 15.5 8s1.5.597 1.5 1.333v5.334c0 .736-.672 1.333-1.5 1.333M15.5 22a1.49 1.49 0 0 1-.57-.12 1.732 1.732 0 0 1-.495-.316 1.49 1.49 0 0 1-.315-1.638c.075-.18.18-.346.315-.496.15-.136.3-.241.495-.316.36-.152.78-.152 1.14 0 .195.075.345.18.495.316.135.15.24.315.315.496A1.49 1.49 0 0 1 15.5 22"/>
    </g>
</svg>
