<svg xmlns="http://www.w3.org/2000/svg" width="65" height="65" viewBox="0 0 65 65">
    <path fill="#FFF" fill-rule="evenodd" d="M22 12h11.58c2.826 0 5.411.475 7.685 1.413 2.228.92 4.145 2.262 5.698 3.991 1.575 1.752 2.816 3.945 3.69 6.52.894 2.634 1.347 5.695 1.347 9.097 0 3.402-.453 6.463-1.348 9.095-.872 2.573-2.111 4.758-3.682 6.493-1.555 1.719-3.474 3.057-5.705 3.978C38.992 53.524 36.407 54 33.58 54H22V37.646h9.478c1.365 0 2.473-1.13 2.473-2.523V30.33c0-1.393-1.108-2.522-2.473-2.522H22V12zM33.043 0H10.68a2.507 2.507 0 0 0-2.503 2.511v24.82H2.503A2.507 2.507 0 0 0 0 29.842v4.772a2.507 2.507 0 0 0 2.503 2.51h5.674V62.49A2.507 2.507 0 0 0 10.68 65h22.363c4.692 0 9.045-.785 12.938-2.332 3.923-1.56 7.34-3.8 10.16-6.658 2.815-2.855 5.024-6.327 6.564-10.32C64.227 41.733 65 37.302 65 32.52c0-4.78-.773-9.211-2.295-13.167-1.538-3.992-3.746-7.47-6.56-10.338-2.82-2.873-6.239-5.123-10.164-6.683C42.086.784 37.733 0 33.043 0zM19 29.833h11.97v4.788H19V56h14.075c3.163 0 6.04-.532 8.625-1.596 2.587-1.064 4.789-2.597 6.604-4.6 1.817-2.001 3.22-4.458 4.21-7.37C53.506 39.52 54 36.216 54 32.52c0-3.696-.494-7-1.486-9.912-.99-2.913-2.393-5.377-4.21-7.393-1.815-2.016-4.017-3.556-6.604-4.62C39.114 9.532 36.238 9 33.075 9H19v20.833zM32.543 2c4.394 0 8.4.718 12.017 2.156 3.615 1.438 6.717 3.476 9.304 6.113 2.587 2.638 4.59 5.8 6.009 9.484C61.29 23.438 62 27.527 62 32.021c0 4.494-.71 8.583-2.127 12.268-1.42 3.684-3.422 6.839-6.01 9.463-2.586 2.623-5.688 4.654-9.303 6.092C40.943 61.282 36.937 62 32.543 62H10.178V34.114H2v-4.773h8.178V2h22.365z"/>
</svg>
