<svg xmlns="http://www.w3.org/2000/svg" width="95" height="77" viewBox="0 0 95 77">
    <path fill="#FFF" fill-rule="evenodd" d="M70.884 24.598c-3.204 0-5.81 2.596-5.81 5.786V64.26c0 5.37-4.387 9.74-9.779 9.74-5.393 0-9.78-4.37-9.78-9.74V12.74c0-3.19-2.606-5.786-5.81-5.786-3.202 0-5.809 2.596-5.809 5.786v33.876c0 5.371-4.387 9.74-9.779 9.74-5.393 0-9.78-4.369-9.78-9.74v-6.492H4.985A1.984 1.984 0 0 1 3 38.147c0-1.09.89-1.977 1.985-1.977h11.337c1.095 0 1.985.887 1.985 1.977v8.469c0 3.19 2.606 5.786 5.81 5.786 3.203 0 5.81-2.596 5.81-5.786V12.74c0-5.37 4.387-9.74 9.779-9.74s9.78 4.37 9.78 9.74v51.52c0 3.19 2.605 5.785 5.809 5.785 3.203 0 5.809-2.595 5.809-5.785V30.384c0-5.371 4.387-9.741 9.78-9.741 5.392 0 9.779 4.37 9.779 9.741v6.139h9.353c1.094 0 1.984.887 1.984 1.977s-.89 1.977-1.984 1.977H78.678a1.983 1.983 0 0 1-1.985-1.977v-8.116c0-3.19-2.606-5.786-5.81-5.786m18.935 8.744h-6.103v-2.914c0-7.102-5.805-12.88-12.94-12.88-7.136 0-12.941 5.778-12.941 12.88V64.12a2.573 2.573 0 0 1-2.575 2.564 2.572 2.572 0 0 1-2.575-2.564V12.88C52.684 5.778 46.878 0 39.742 0s-12.94 5.778-12.94 12.88v33.692a2.573 2.573 0 0 1-2.576 2.563 2.572 2.572 0 0 1-2.575-2.563V38.15c0-2.844-2.325-5.158-5.183-5.158H5.183C2.325 32.99 0 35.305 0 38.149c0 2.844 2.325 5.158 5.183 5.158h6.102v3.265c0 7.102 5.805 12.88 12.941 12.88 7.136 0 12.94-5.778 12.94-12.88V12.88a2.573 2.573 0 0 1 2.576-2.564c1.42 0 2.575 1.15 2.575 2.564v51.24c0 7.102 5.806 12.88 12.942 12.88 7.135 0 12.94-5.778 12.94-12.88V30.428a2.572 2.572 0 0 1 2.576-2.563c1.42 0 2.575 1.15 2.575 2.563V38.5c0 2.844 2.325 5.158 5.183 5.158h11.285c2.857 0 5.182-2.314 5.182-5.158 0-2.844-2.325-5.158-5.182-5.158"/>
</svg>
