<svg xmlns="http://www.w3.org/2000/svg" xmlns:xlink="http://www.w3.org/1999/xlink" width="76" height="76" viewBox="0 0 76 76">
    <defs>
        <path id="a" d="M48.886 26H.474V.526h48.412V26z"/>
        <path id="c" d="M0 .3V48.49h25.36V.3z"/>
    </defs>
    <g fill="none" fill-rule="evenodd">
        <g transform="translate(19 50)">
            <mask id="b" fill="#fff">
                <use xlink:href="#a"/>
            </mask>
            <path fill="#FFF" d="M17.01 25.911C11.273 25.47 5.883 23.86.869 20.99c-.112-.064-.224-.127-.332-.197-.024-.015-.032-.053-.063-.112L4.2 17.853c6.29-4.765 12.583-9.527 18.865-14.306.33-.252.493-.228.776.057 1.938 1.95 3.904 3.872 5.843 5.822.269.27.458.275.777.114 3.902-1.983 7.09-4.791 9.55-8.447.126-.188.25-.377.376-.567.166.073.236.227.333.353 2.735 3.536 5.383 7.137 7.992 10.77.23.32.241.501-.028.811-6.21 7.146-13.92 11.547-23.21 13.075-1.048.172-2.103.265-3.158.376-.215.109-.463-.038-.676.09h-4.05c-.18-.125-.4.015-.581-.09" mask="url(#b)"/>
        </g>
        <g transform="translate(0 19)">
            <mask id="d" fill="#fff">
                <use xlink:href="#c"/>
            </mask>
            <path fill="#FFF" d="M0 16.67c.197-.073.11-.248.12-.373.395-4.751 1.604-9.287 3.701-13.586.352-.722.765-1.416 1.114-2.139.196-.405.303-.312.527-.02C7.81 3.61 10.171 6.66 12.527 9.712c3.313 4.292 6.625 8.586 9.946 12.871.228.295.295.454-.022.768-1.975 1.957-3.912 3.952-5.879 5.918-.267.267-.276.458-.112.781 2.013 3.984 4.887 7.217 8.64 9.68.363.239.326.337.015.576a396.168 396.168 0 0 1-10.85 8.04c-.277.198-.428.195-.686-.029C6.403 42.095 1.994 34.358.468 25.035c-.177-1.079-.27-2.166-.38-3.252-.103-.183.035-.401-.088-.581v-2.893a.723.723 0 0 0 0-.578V16.67z" mask="url(#d)"/>
        </g>
        <path fill="#FFF" d="M39.435.086C46.771.6 52.547 3.093 56 5.227c-.113.092-.213.18-.32.258-7.498 5.42-14.998 10.839-22.49 16.268-.29.212-.45.201-.702-.05-1.801-1.791-3.625-3.559-5.423-5.354-.275-.274-.47-.298-.812-.125-3.943 1.993-7.15 4.821-9.584 8.526-.244.37-.34.292-.563.004a388.938 388.938 0 0 1-7.963-10.693c-.193-.27-.196-.42.026-.676C14.176 6.48 21.64 2.17 30.626.56c1.27-.228 2.553-.352 3.836-.473.18-.1.398.034.575-.086h3.727c.211.125.457-.019.671.086M70.993 56l-3.424-4.517c-4.479-5.912-8.954-11.827-13.443-17.731-.236-.311-.213-.47.052-.74 1.849-1.89 3.672-3.806 5.522-5.696.285-.29.301-.5.123-.856-1.99-4.006-4.837-7.259-8.57-9.728-.362-.24-.31-.335-.009-.57a386.557 386.557 0 0 1 10.692-8.02c.275-.2.426-.188.678.033 6.983 6.117 11.366 13.71 12.863 22.879 1.414 8.654-.05 16.849-4.25 24.553-.06.112-.13.22-.234.393"/>
    </g>
</svg>
